<svg width="113" height="114" viewBox="0 0 113 114" fill="none" xmlns="http://www.w3.org/2000/svg">
<path d="M60.171 71.9319H71.2304C81.407 71.9319 89.6627 63.6775 89.6627 53.4886V18.4495C89.6627 8.26682 81.4132 0.00622166 71.2304 0.00622166H60.1088C59.8477 0.00622166 59.6425 0.217713 59.6425 0.472746V71.4032C59.6425 71.6955 59.8788 71.9319 60.171 71.9319ZM73.8662 32.2897C77.8822 32.2897 81.1335 35.543 81.1335 39.5613C81.1335 43.5796 77.8822 46.8329 73.8662 46.8329C69.8503 46.8329 66.5989 43.5796 66.5989 39.5613C66.5989 35.543 69.8503 32.2897 73.8662 32.2897ZM51.9277 0H36.2182C26.0415 0 17.7859 8.25438 17.7859 18.4433V53.4824C17.7859 63.6651 26.0353 71.9257 36.2182 71.9257H51.9277C52.2199 71.9257 52.4561 71.6893 52.4561 71.397V0.52873C52.4561 0.236374 52.2199 0 51.9277 0V0ZM46.6622 66.1283H36.2182C32.8426 66.1283 29.6721 64.8158 27.2849 62.4272C24.8977 60.0386 23.586 56.8663 23.586 53.4886V18.4495C23.586 15.0719 24.8977 11.8933 27.2849 9.51089C29.6721 7.12228 32.8426 5.80979 36.2182 5.80979H46.6622V66.1408V66.1283ZM28.9758 21.5783C28.9758 25.3105 32.0033 28.3398 35.7333 28.3398C39.4633 28.3398 42.4908 25.3105 42.4908 21.5783C42.4908 17.8461 39.4633 14.8168 35.7333 14.8168C32.0033 14.8168 28.9758 17.8461 28.9758 21.5783ZM2.57992 85.8654L7.03725 91.8743H8.80902V82.8921H6.98754V88.789L2.5737 82.8921H0.758451V91.8743H2.57992V85.8654ZM46.3948 82.8921H38.7919V84.7956H41.664V91.8743H43.5973V84.7956H46.4011V82.8921H46.3948ZM45.8416 113.415H49.6089V96.4711H45.8416V113.415ZM26.1659 85.8654L30.6232 91.8743H32.395V82.8921H30.5735V88.789L26.1597 82.8921H24.3444V91.8743H26.1659V85.8654ZM34.6765 108.762L31.0895 96.4649H28.0806L24.5122 108.713L21.2547 96.4649H17.5683L22.3613 113.409H26.4332L29.5913 102.244L32.7307 113.409H36.815L41.6329 96.4649H37.9464L34.6765 108.762V108.762ZM7.78948 103.121C5.34012 102.716 3.7611 102.262 3.7611 101.124C3.7611 99.8052 5.52038 99.3014 7.8827 99.3014C10.0772 99.3014 12.2779 100.141 13.0674 100.471L14.2734 97.5348C13.4218 97.1989 10.7175 96.2285 7.71488 96.2285C4.05328 96.2285 0.167862 98.0137 0.167862 101.323C0.167862 104.004 2.05771 105.379 6.91291 106.212C10.3383 106.803 12.2219 107.127 12.166 108.601C12.1349 109.409 11.507 110.772 7.65269 110.772C4.55058 110.772 2.36234 109.646 1.60391 109.192L0 112.09C0.851681 112.538 3.7238 113.888 7.41027 113.888C12.8001 113.888 15.6473 112.022 15.6473 108.489C15.6473 106.442 14.9573 104.309 7.7957 103.133L7.78948 103.121ZM17.5745 82.8921H15.5789V91.8743H17.5745V82.8921ZM75.4328 91.8743V82.8921H73.6113V88.789L69.1975 82.8921H67.3822V91.8743H69.2037V85.8654L73.6611 91.8743H75.4328ZM59.9409 90.2072H54.7811V88.0985H59.5493V86.475H54.7811V84.5343H59.9409V82.8859H52.9596V91.8681H59.9409V90.201V90.2072ZM107.716 111.375H108.493V113.415H108.984V111.375H109.742V110.89H107.722V111.375H107.716ZM101.941 82.5873C99.3047 82.5873 97.16 84.7396 97.16 87.3832C97.16 90.0269 99.3047 92.1791 101.941 92.1791C104.576 92.1791 106.721 90.0269 106.721 87.3832C106.721 84.7396 104.576 82.5873 101.941 82.5873ZM101.941 90.1761C100.405 90.1761 99.1493 88.9196 99.1493 87.377C99.1493 85.8343 100.399 84.5841 101.941 84.5841C103.482 84.5841 104.732 85.8406 104.732 87.377C104.732 88.9134 103.482 90.1761 101.941 90.1761ZM112.304 110.89L111.67 112.737L111.036 110.89H110.339V113.409H110.787V111.475L111.446 113.39V113.415H111.887V113.39L112.552 111.475V113.409H113V110.89H112.304V110.89ZM102.55 103.146H94.636V96.4649H91.1361V113.409H94.636V106.648H102.55V113.409H106.056V96.4649H102.55V103.146ZM53.7367 100.06H59.1514V113.409H62.7944V100.06H68.0847V96.4649H53.7367V100.06ZM79.8591 99.6808C81.7738 99.6808 83.5517 100.701 84.5091 102.312L87.2631 99.911C85.5784 97.3979 82.7933 95.9113 79.7596 95.9113C74.7739 95.9113 70.7206 99.9669 70.7206 104.956C70.7206 109.944 74.7739 114 79.7596 114C82.7933 114 85.5784 112.507 87.2631 110L84.5091 107.606C83.5517 109.217 81.7738 110.237 79.8591 110.237C76.8937 110.237 74.4879 107.867 74.4879 104.962C74.4879 102.057 76.8999 99.687 79.8591 99.687V99.6808ZM86.7347 82.8921H83.0234V91.8743H86.7347C89.2773 91.8743 91.3474 89.8589 91.3474 87.3832C91.3474 84.9075 89.2773 82.8921 86.7347 82.8921ZM86.8279 89.9895H84.8697V84.7831H86.8279C88.264 84.7831 89.4327 85.9525 89.4327 87.3832C89.4327 88.8139 88.264 89.9895 86.8279 89.9895Z" fill="white"/>
</svg>
